<?xml version="1.0" encoding="UTF-8" standalone="no"?>
<!-- Uploaded to: SVG Repo, www.svgrepo.com, Generator: SVG Repo Mixer Tools -->

<svg
   fill="#000000"
   width="800px"
   height="800px"
   viewBox="0 0 24 24"
   id="bottle-2"
   data-name="Flat Color"
   class="icon flat-color"
   version="1.1"
   sodipodi:docname="bottle2.svg"
   inkscape:version="1.3 (0e150ed, 2023-07-21)"
   xmlns:inkscape="http://www.inkscape.org/namespaces/inkscape"
   xmlns:sodipodi="http://sodipodi.sourceforge.net/DTD/sodipodi-0.dtd"
   xmlns:xlink="http://www.w3.org/1999/xlink"
   xmlns="http://www.w3.org/2000/svg"
   xmlns:svg="http://www.w3.org/2000/svg">
  <defs
     id="defs1">
    <linearGradient
       id="linearGradient1"
       inkscape:collect="always">
      <stop
         style="stop-color:#8246be;stop-opacity:0.6678201;"
         offset="0"
         id="stop1" />
      <stop
         style="stop-color:#e30b4e;stop-opacity:1;"
         offset="0.55895692"
         id="stop3" />
      <stop
         style="stop-color:#f94826;stop-opacity:0.55709344;"
         offset="1"
         id="stop2" />
    </linearGradient>
    <linearGradient
       inkscape:collect="always"
       xlink:href="#linearGradient1"
       id="linearGradient2"
       x1="4.8397851"
       y1="12.254707"
       x2="17.669625"
       y2="12.254707"
       gradientUnits="userSpaceOnUse" />
  </defs>
  <sodipodi:namedview
     id="namedview1"
     pagecolor="#ffffff"
     bordercolor="#999999"
     borderopacity="1"
     inkscape:showpageshadow="2"
     inkscape:pageopacity="0"
     inkscape:pagecheckerboard="0"
     inkscape:deskcolor="#d1d1d1"
     inkscape:zoom="0.9475"
     inkscape:cx="399.4723"
     inkscape:cy="399.4723"
     inkscape:window-width="1920"
     inkscape:window-height="952"
     inkscape:window-x="1512"
     inkscape:window-y="25"
     inkscape:window-maximized="0"
     inkscape:current-layer="bottle-2" />
  <path
     id="primary"
     d="m 15.623966,10.750093 a 2.52,2.52 0 0 1 0.03597,-1.920731 l 1.91818,-4.1699745 A 1,1 0 0 0 17.087532,3.3329923 L 15.270549,2.4971842 a 1,1 0 0 0 -1.326395,0.4905872 l -1.91818,4.1699744 A 2.52,2.52 0 0 1 10.590925,8.4349042 4.41,4.41 45 0 0 8.1946947,10.700865 L 5.022803,17.596313 a 2,2 0 0 0 0.9811742,2.652791 l 3.6339647,1.671616 a 2,2 0 0 0 2.6527901,-0.981174 l 3.171892,-6.895448 a 4.41,4.41 45 0 0 0.161342,-3.294005 z"
     style="fill:url(#linearGradient2)" />
</svg>
