<?xml version="1.0" encoding="UTF-8" standalone="no"?>
<!-- Uploaded to: SVG Repo, www.svgrepo.com, Generator: SVG Repo Mixer Tools -->

<svg
   width="800px"
   height="800px"
   viewBox="0 0 24 24"
   fill="none"
   version="1.1"
   id="svg1"
   sodipodi:docname="headphones2.svg"
   inkscape:version="1.3 (0e150ed, 2023-07-21)"
   xmlns:inkscape="http://www.inkscape.org/namespaces/inkscape"
   xmlns:sodipodi="http://sodipodi.sourceforge.net/DTD/sodipodi-0.dtd"
   xmlns:xlink="http://www.w3.org/1999/xlink"
   xmlns="http://www.w3.org/2000/svg"
   xmlns:svg="http://www.w3.org/2000/svg">
  <defs
     id="defs1">
    <linearGradient
       id="linearGradient1"
       inkscape:collect="always">
      <stop
         style="stop-color:#f94826;stop-opacity:0.70242214;"
         offset="0"
         id="stop2" />
      <stop
         style="stop-color:#e30b4e;stop-opacity:1;"
         offset="0.4637188"
         id="stop3" />
      <stop
         style="stop-color:#8246be;stop-opacity:0.8615917;"
         offset="0.93650794"
         id="stop1" />
    </linearGradient>
    <linearGradient
       inkscape:collect="always"
       xlink:href="#linearGradient1"
       id="linearGradient2"
       x1="2"
       y1="12.000004"
       x2="21.999927"
       y2="12.000004"
       gradientUnits="userSpaceOnUse" />
  </defs>
  <sodipodi:namedview
     id="namedview1"
     pagecolor="#ffffff"
     bordercolor="#999999"
     borderopacity="1"
     inkscape:showpageshadow="2"
     inkscape:pageopacity="0"
     inkscape:pagecheckerboard="0"
     inkscape:deskcolor="#d1d1d1"
     inkscape:zoom="0.79625"
     inkscape:cx="400"
     inkscape:cy="400"
     inkscape:window-width="1920"
     inkscape:window-height="952"
     inkscape:window-x="1512"
     inkscape:window-y="25"
     inkscape:window-maximized="0"
     inkscape:current-layer="svg1" />
  <path
     d="M2 12.124C2 6.53269 6.47713 2 11.9999 2C17.5228 2 21.9999 6.53269 21.9999 12.124L21.9999 17.3675C22.0002 18.1844 22.0004 18.7446 21.8568 19.2364C21.576 20.1982 20.9046 20.9937 20.01 21.4245C19.5525 21.6449 19.0059 21.732 18.2088 21.8591L18.0789 21.8799C17.7954 21.9252 17.5532 21.9639 17.3522 21.9839C17.1431 22.0047 16.9299 22.0111 16.7118 21.9676C15.9942 21.8245 15.4024 21.3126 15.1508 20.6172C15.0744 20.4059 15.0474 20.1916 15.035 19.9793C15.0232 19.7753 15.0232 19.527 15.0232 19.2365L15.0231 15.0641C15.0226 14.6386 15.0222 14.2725 15.1195 13.959C15.3422 13.2416 15.9238 12.6975 16.6477 12.5292C16.9641 12.4556 17.3246 12.4849 17.7435 12.5189L17.8367 12.5264L17.9465 12.5352C18.7302 12.5975 19.2664 12.6402 19.7216 12.8106C20.0415 12.9304 20.3381 13.0953 20.6046 13.2976V12.124C20.6046 7.31288 16.7521 3.41266 11.9999 3.41266C7.24776 3.41266 3.39534 7.31288 3.39534 12.124V13.2976C3.66176 13.0953 3.95843 12.9304 4.27829 12.8106C4.73345 12.6402 5.26965 12.5975 6.05335 12.5352L6.16318 12.5264L6.25641 12.5189C6.67534 12.4849 7.03581 12.4556 7.35224 12.5292C8.07612 12.6975 8.65766 13.2416 8.88039 13.959C8.97774 14.2725 8.9773 14.6386 8.97678 15.0641L8.97671 19.2365C8.97671 19.527 8.97672 19.7753 8.96487 19.9793C8.95254 20.1916 8.9255 20.4059 8.84906 20.6172C8.59754 21.3126 8.00574 21.8245 7.28812 21.9676C7.07001 22.0111 6.85675 22.0047 6.64768 21.9839C6.44671 21.9639 6.20449 21.9252 5.92102 21.8799L5.79106 21.8591C4.99399 21.732 4.44737 21.6449 3.98991 21.4245C3.09534 20.9937 2.42388 20.1982 2.14308 19.2364C2.02467 18.8309 2.00404 18.3788 2.0006 17.7747L2 17.5803V12.124Z"
     fill="#1C274C"
     id="path1"
     style="fill:url(#linearGradient2)" />
</svg>
