<?xml version="1.0" encoding="UTF-8" standalone="no"?>
<!-- Uploaded to: SVG Repo, www.svgrepo.com, Generator: SVG Repo Mixer Tools -->

<svg
   fill="#000000"
   height="800px"
   width="800px"
   version="1.1"
   id="Capa_1"
   viewBox="0 0 378.464 378.464"
   xml:space="preserve"
   sodipodi:docname="hockey2.svg"
   inkscape:version="1.3 (0e150ed, 2023-07-21)"
   xmlns:inkscape="http://www.inkscape.org/namespaces/inkscape"
   xmlns:sodipodi="http://sodipodi.sourceforge.net/DTD/sodipodi-0.dtd"
   xmlns:xlink="http://www.w3.org/1999/xlink"
   xmlns="http://www.w3.org/2000/svg"
   xmlns:svg="http://www.w3.org/2000/svg"><defs
   id="defs5"><linearGradient
     id="linearGradient5"
     inkscape:collect="always"><stop
       style="stop-color:#f94826;stop-opacity:1;"
       offset="0"
       id="stop6" /><stop
       style="stop-color:#e30b4e;stop-opacity:1;"
       offset="0.5"
       id="stop7" /><stop
       style="stop-color:#8246be;stop-opacity:1;"
       offset="1"
       id="stop5" /></linearGradient><linearGradient
     inkscape:collect="always"
     xlink:href="#linearGradient5"
     id="linearGradient6"
     x1="23.268"
     y1="189.232"
     x2="355.195"
     y2="189.232"
     gradientUnits="userSpaceOnUse" /></defs><sodipodi:namedview
   id="namedview5"
   pagecolor="#ffffff"
   bordercolor="#999999"
   borderopacity="1"
   inkscape:showpageshadow="2"
   inkscape:pageopacity="0"
   inkscape:pagecheckerboard="0"
   inkscape:deskcolor="#d1d1d1"
   inkscape:zoom="0.9475"
   inkscape:cx="399.4723"
   inkscape:cy="399.4723"
   inkscape:window-width="1920"
   inkscape:window-height="952"
   inkscape:window-x="1512"
   inkscape:window-y="25"
   inkscape:window-maximized="0"
   inkscape:current-layer="Capa_1" />&#10;<g
   id="g5"
   style="fill:url(#linearGradient6);fill-opacity:1">&#10;	<path
   d="M172.465,120.064v49.924c0,2.209,1.791,4,4,4s4-1.791,4-4v-49.924c0-9.269-3.217-18.325-9.058-25.503   c-1.395-1.711-3.914-1.971-5.627-0.577c-1.713,1.395-1.972,3.914-0.578,5.628C169.885,105.366,172.465,112.63,172.465,120.064z"
   id="path1"
   style="fill:url(#linearGradient6);fill-opacity:1" />&#10;	<path
   d="M277.296,49.295v46.804c0,2.209,1.791,4,4,4s4-1.791,4-4V49.295c0-8.747-3.036-17.294-8.549-24.066   c-1.394-1.712-3.913-1.97-5.627-0.577c-1.713,1.396-1.971,3.914-0.577,5.628C274.898,35.629,277.296,42.382,277.296,49.295z"
   id="path2"
   style="fill:url(#linearGradient6);fill-opacity:1" />&#10;	<path
   d="M355.195,101.771c0-22.113-22.081-41.66-57.85-51.451V48.53c0-12.967-5.047-25.154-14.213-34.32   C273.956,5.047,261.765,0,248.804,0c-26.759,0-48.53,21.771-48.53,48.53v1.761c-14.805,4.068-27.649,9.983-37.45,17.25   c-6.88-3.263-14.566-5.096-22.673-5.096c-29.28,0-53.102,23.821-53.102,53.102v2.257c-39.428,10.751-63.781,32.206-63.781,56.439   c0,0.06,0.005,39.943,0.005,39.943c0,17.388,12.501,33.527,35.202,45.444c21.883,11.488,50.889,17.815,81.676,17.815   s59.793-6.327,81.676-17.815c22.7-11.917,35.202-28.057,35.202-45.444v-18.62c24.894-1.014,48.094-6.603,66.031-16.021   c20.716-10.877,32.125-25.632,32.125-41.546C355.185,138,355.195,102.046,355.195,101.771z M347.195,101.771h-0.01v0.796   c-0.207,6.326-2.793,12.445-7.692,18.255c-6.985-14.063-21.923-26.033-42.148-33.62V58.637   C327.797,67.488,347.195,84.115,347.195,101.771z M208.275,48.53c0-22.349,18.182-40.53,40.53-40.53   c10.826,0,21.009,4.216,28.672,11.868c7.653,7.653,11.868,17.832,11.868,28.662v61.05c0,10.604,8.626,19.23,19.23,19.23   c2.209,0,4-1.791,4-4s-1.791-4-4-4c-6.192,0-11.23-5.038-11.23-11.23V95.79c18.084,7.359,30.965,18.422,36.101,31.06   c-17.757,15.174-49.545,24.552-83.99,24.666c-8.614-12.371-24.24-22.959-45.135-30.266c2.518-3.3,3.954-7.381,3.954-11.669V48.53z    M249.03,174.243v0.194c-0.051,7.489-3.072,14.718-8.987,21.554c-7.562-15.718-24.179-29.109-46.789-37.532v-32.323   c34.056,9.776,55.782,28.351,55.782,48.108H249.03z M195.806,118.544c-0.845-0.244-1.693-0.485-2.553-0.719v-2.279   c0-5.352-0.804-10.518-2.283-15.394c2.936-1.578,6.045-3.036,9.304-4.362v13.789C200.275,113.129,198.594,116.438,195.806,118.544z    M200.275,58.61v28.591c-4.298,1.607-8.385,3.429-12.222,5.441c-3.995-8.321-10.101-15.438-17.611-20.674   C178.564,66.524,188.709,61.978,200.275,58.61z M95.051,115.547c0-24.869,20.232-45.102,45.102-45.102s45.102,20.232,45.102,45.102   v67.303c0,11.464,9.327,20.791,20.791,20.791c2.209,0,4-1.791,4-4s-1.791-4-4-4c-7.053,0-12.791-5.738-12.791-12.791v-15.811   c20.474,8.209,35.027,20.696,40.708,34.983c-19.735,17.003-55.316,27.483-93.792,27.483c-38.518,0-74.126-10.481-93.854-27.476   c5.745-14.331,20.306-26.819,40.735-34.985v15.807c0,7.053-5.738,12.791-12.791,12.791h-0.847c-2.209,0-4,1.791-4,4s1.791,4,4,4   h0.847c11.464,0,20.791-9.327,20.791-20.791V115.547z M87.051,126.115v32.353c-22.563,8.377-39.186,21.762-46.802,37.516   c-5.91-6.868-8.927-14.1-8.974-21.563v-0.177h-0.005C31.269,154.502,52.993,135.92,87.051,126.115z M218.109,252.548   c-20.757,10.897-48.442,16.898-77.957,16.898s-57.2-6.001-77.957-16.898c-19.939-10.468-30.92-24.092-30.92-38.361v-16.722   c2.134,2.981,4.669,5.877,7.621,8.654c20.701,19.359,59.507,31.386,101.274,31.386c41.725,0,80.505-12.026,101.204-31.384   c2.966-2.77,5.514-5.664,7.657-8.649v16.715C249.03,228.456,238.049,242.08,218.109,252.548z M319.342,172.463   c-16.832,8.839-38.715,14.103-62.312,15.1v-13.124c0-0.065,0.006-0.13,0.006-0.195c0-5.08-1.086-10.034-3.137-14.796   c35.985-0.928,68.975-11.663,86.965-28.492c2.402-2.242,4.507-4.577,6.321-6.981V138   C347.185,150.797,337.297,163.036,319.342,172.463z"
   id="path3"
   style="fill:url(#linearGradient6);fill-opacity:1" />&#10;	<path
   d="M269.275,267.642c-47.851,0-85.333,19.913-85.333,45.335v20.152c0,25.422,37.483,45.335,85.333,45.335   s85.333-19.913,85.333-45.335v-20.152C354.608,287.555,317.125,267.642,269.275,267.642z M346.608,333.129   c0,20.237-35.415,37.335-77.333,37.335s-77.333-17.098-77.333-37.335v-0.679c13.481,15.414,42.682,25.861,77.333,25.861   s63.853-10.446,77.333-25.861V333.129z M269.275,350.311c-41.919,0-77.333-17.097-77.333-37.334s35.415-37.335,77.333-37.335   s77.333,17.098,77.333,37.335S311.194,350.311,269.275,350.311z"
   id="path4"
   style="fill:url(#linearGradient6);fill-opacity:1" />&#10;	<path
   d="M269.275,282.153c-40.483,0-71.012,13.251-71.012,30.823c0,17.571,30.528,30.822,71.012,30.822   s71.012-13.251,71.012-30.822C340.286,295.404,309.758,282.153,269.275,282.153z M269.275,335.799   c-37.134,0-63.012-12.027-63.012-22.822s25.878-22.823,63.012-22.823s63.012,12.028,63.012,22.823S306.408,335.799,269.275,335.799   z"
   id="path5"
   style="fill:url(#linearGradient6);fill-opacity:1" />&#10;</g>&#10;</svg>
