<?xml version="1.0" encoding="UTF-8" standalone="no"?>
<svg
   version="1.0"
   width="512.000000pt"
   height="512.000000pt"
   viewBox="0 0 512.000000 512.000000"
   preserveAspectRatio="xMidYMid meet"
   id="svg1"
   sodipodi:docname="snack2.svg"
   inkscape:version="1.3 (0e150ed, 2023-07-21)"
   xmlns:inkscape="http://www.inkscape.org/namespaces/inkscape"
   xmlns:sodipodi="http://sodipodi.sourceforge.net/DTD/sodipodi-0.dtd"
   xmlns:xlink="http://www.w3.org/1999/xlink"
   xmlns="http://www.w3.org/2000/svg"
   xmlns:svg="http://www.w3.org/2000/svg">
  <defs
     id="defs1">
    <linearGradient
       id="linearGradient1"
       inkscape:collect="always">
      <stop
         style="stop-color:#f94826;stop-opacity:1;"
         offset="0"
         id="stop2" />
      <stop
         style="stop-color:#e30b4e;stop-opacity:1;"
         offset="0.40929705"
         id="stop3" />
      <stop
         style="stop-color:#8246be;stop-opacity:1;"
         offset="0.82766438"
         id="stop1" />
    </linearGradient>
    <linearGradient
       inkscape:collect="always"
       xlink:href="#linearGradient1"
       id="linearGradient2"
       x1="0"
       y1="2558.2505"
       x2="5119.9365"
       y2="2558.2505"
       gradientUnits="userSpaceOnUse"
       spreadMethod="pad" />
  </defs>
  <sodipodi:namedview
     id="namedview1"
     pagecolor="#ffffff"
     bordercolor="#999999"
     borderopacity="1"
     inkscape:showpageshadow="2"
     inkscape:pageopacity="0"
     inkscape:pagecheckerboard="0"
     inkscape:deskcolor="#d1d1d1"
     inkscape:document-units="pt"
     inkscape:zoom="1.1103516"
     inkscape:cx="341.78364"
     inkscape:cy="341.78364"
     inkscape:window-width="1920"
     inkscape:window-height="952"
     inkscape:window-x="1512"
     inkscape:window-y="25"
     inkscape:window-maximized="0"
     inkscape:current-layer="svg1" />
  <g
     transform="translate(0.000000,512.000000) scale(0.100000,-0.100000)"
     fill="#000000"
     stroke="none"
     id="g1"
     style="fill:url(#linearGradient2);fill-opacity:1">
    <path
       d="M1290 4901 c-140 -45 -207 -173 -161 -306 18 -54 19 -61 5 -70 -193 -122 -324 -373 -312 -595 3 -51 12 -99 22 -117 l16 -32 -205 -3 c-259 -4 -250 2 -250 -156 0 -129 13 -170 70 -228 72 -71 91 -74 517 -74 304 0 374 3 397 15 46 23 54 66 20 109 l-20 26 -375 0 c-427 0 -435 1 -454 67 -7 21 -10 50 -8 63 l3 25 2005 0 2005 0 3 -25 c2 -13 -1 -42 -8 -63 -21 -72 80 -67 -1483 -67 l-1404 0 -21 -23 c-36 -38 -28 -88 19 -112 23 -12 85 -15 334 -15 l305 0 0 -234 c0 -223 -1 -235 -19 -241 -31 -9 -89 -80 -100 -122 -6 -21 -11 -66 -11 -100 l0 -63 -78 0 c-55 0 -88 -5 -113 -18 -35 -18 -37 -18 -70 0 -24 13 -55 18 -111 18 l-78 0 0 58 c0 88 -23 154 -69 195 -59 53 -95 59 -335 55 -197 -3 -214 -5 -253 -26 -24 -12 -55 -41 -70 -64 -24 -36 -28 -54 -31 -130 l-4 -88 -82 0 c-73 0 -87 -3 -128 -29 -77 -49 -88 -85 -88 -284 l0 -167 -310 0 -311 0 -24 -25 c-23 -23 -25 -31 -25 -132 0 -92 4 -115 24 -158 23 -51 68 -97 115 -118 19 -9 243 -13 781 -17 l755 -5 6 -55 c10 -97 65 -173 159 -221 40 -20 63 -24 194 -27 l148 -4 -4 -127 c-8 -195 -51 -301 -186 -450 l-62 -70 -423 -3 c-468 -3 -460 -2 -509 -70 -20 -29 -23 -47 -26 -144 -4 -130 7 -167 64 -210 l37 -29 213 -3 213 -3 26 25 c32 32 33 75 2 104 -22 21 -32 22 -216 22 l-192 0 3 78 3 77 1435 0 1435 0 3 -77 3 -78 -1105 0 -1105 0 -20 -26 c-26 -33 -27 -65 -2 -95 l19 -24 1129 0 1130 0 37 29 c57 43 68 80 64 210 -3 97 -6 115 -26 144 -49 68 -41 67 -509 70 l-423 3 -62 70 c-135 149 -178 255 -186 451 l-4 126 143 4 c124 3 151 7 194 26 95 44 150 118 163 220 l7 57 407 3 407 2 20 26 c34 43 26 86 -20 109 -24 13 -294 15 -2042 15 -1939 0 -2016 1 -2037 18 -18 14 -24 32 -28 75 l-4 57 2411 0 2411 0 0 -40 c0 -46 -21 -95 -45 -104 -9 -3 -93 -6 -186 -6 -130 0 -177 -3 -198 -15 -46 -23 -54 -66 -20 -109 l20 -26 199 0 c213 0 238 5 299 56 59 49 75 95 79 226 4 114 4 117 -22 142 l-25 26 -311 0 -310 0 0 167 c0 199 -11 235 -88 284 -41 26 -55 29 -128 29 l-82 0 -4 88 c-3 76 -7 94 -31 130 -15 23 -46 52 -70 64 -39 21 -56 23 -253 26 -236 4 -275 -2 -330 -50 -51 -45 -66 -81 -72 -175 l-5 -83 -76 0 c-55 0 -86 -5 -110 -18 -33 -18 -35 -18 -70 0 -25 13 -58 18 -113 18 l-78 0 0 63 c0 34 -5 79 -11 100 -11 42 -69 113 -100 122 -18 6 -19 18 -19 241 l0 234 843 0 c954 0 915 -3 992 74 57 58 70 99 70 228 0 158 9 152 -249 156 l-203 3 18 52 c36 104 16 272 -50 410 -53 111 -155 228 -246 282 -15 9 -15 13 4 55 62 136 -28 296 -182 325 -49 10 -128 -11 -175 -45 -82 -59 -116 -192 -73 -286 l19 -42 -22 -10 c-43 -19 -150 -127 -196 -198 -106 -162 -146 -376 -94 -503 8 -18 14 -35 14 -37 0 -2 -52 -4 -114 -4 l-115 0 17 38 c26 59 23 218 -7 312 -46 150 -133 280 -241 361 -60 45 -59 43 -35 109 39 104 -13 226 -120 283 -63 34 -159 30 -221 -9 -75 -46 -108 -100 -112 -185 -3 -54 0 -80 14 -111 l18 -41 -24 -16 c-131 -87 -230 -224 -281 -391 -30 -94 -33 -253 -7 -312 l17 -38 -115 0 c-62 0 -114 2 -114 4 0 2 6 19 14 37 48 115 14 325 -76 477 -41 69 -155 192 -202 217 l-34 19 17 35 c55 110 16 242 -91 305 -47 27 -136 41 -178 27z m99 -156 c78 -40 47 -155 -41 -155 -89 0 -118 117 -38 157 32 16 45 16 79 -2z m1232 -11 c26 -24 33 -68 15 -102 -17 -33 -34 -42 -79 -42 -84 0 -108 116 -32 159 25 14 73 6 96 -15z m1217 -10 c29 -34 29 -78 -3 -109 -55 -56 -145 -19 -145 60 0 25 8 40 32 60 38 32 81 29 116 -11z m-2370 -325 c119 -59 219 -202 249 -358 19 -95 12 -159 -22 -200 -41 -48 -92 -56 -360 -56 -230 0 -242 1 -287 23 -66 32 -82 71 -75 176 8 132 64 253 160 346 107 104 220 127 335 69z m1210 1 c154 -77 273 -291 259 -466 -7 -95 -35 -123 -141 -143 -86 -16 -418 -14 -489 3 -90 21 -127 68 -127 163 1 231 195 473 380 473 43 0 71 -7 118 -30z m1209 2 c144 -74 249 -243 260 -417 12 -178 -39 -205 -387 -205 -217 0 -289 13 -332 60 -37 40 -45 102 -25 200 22 111 67 200 142 276 112 115 230 145 342 86z m-1227 -1307 l0 -225 -100 0 -100 0 0 225 0 225 100 0 100 0 0 -225z m-1100 -395 c17 -17 20 -31 18 -78 l-3 -57 -227 -3 -228 -2 0 64 c0 98 -4 96 226 96 182 0 195 -1 214 -20z m1214 1 c13 -14 16 -33 14 -77 l-3 -59 -225 0 -225 0 -3 59 c-5 96 -6 96 228 96 180 0 198 -2 214 -19z m1208 2 c14 -12 18 -31 18 -80 l0 -63 -227 2 -228 3 -3 57 c-2 47 1 61 18 78 19 19 32 20 212 20 164 0 194 -2 210 -17z m-2114 -305 c8 -8 12 -56 12 -149 0 -112 -3 -141 -16 -153 -14 -14 -74 -16 -518 -16 -377 0 -505 3 -514 12 -17 17 -17 289 0 306 17 17 1019 17 1036 0z m1210 0 c8 -8 12 -57 12 -153 0 -96 -4 -145 -12 -153 -17 -17 -1019 -17 -1036 0 -8 8 -12 57 -12 153 0 96 4 145 12 153 17 17 1019 17 1036 0z m1210 0 c8 -8 12 -57 12 -153 0 -96 -4 -145 -12 -153 -9 -9 -137 -12 -514 -12 -444 0 -504 2 -518 16 -13 12 -16 41 -16 153 0 93 4 141 12 149 17 17 1019 17 1036 0z m-998 -802 c0 -45 -38 -98 -80 -113 -20 -7 -94 -12 -176 -12 -129 -1 -144 -3 -174 -23 -64 -44 -72 -73 -67 -248 3 -101 11 -176 22 -215 22 -81 76 -189 125 -253 22 -29 40 -55 40 -57 0 -3 -189 -5 -420 -5 -391 0 -445 3 -409 26 20 12 97 139 123 203 39 97 56 196 56 333 0 139 -12 176 -70 216 -30 20 -45 22 -174 23 -82 0 -156 5 -176 12 -42 15 -80 68 -80 113 l0 34 730 0 730 0 0 -34z"
       id="path1"
       style="fill:url(#linearGradient2);fill-opacity:1" />
  </g>
</svg>
