<?xml version="1.0" encoding="UTF-8" standalone="no"?>
<svg
   version="1.0"
   width="820.000000pt"
   height="880.000000pt"
   viewBox="0 0 820.000000 880.000000"
   preserveAspectRatio="xMidYMid meet"
   id="svg2"
   sodipodi:docname="vfx2.svg"
   inkscape:version="1.3 (0e150ed, 2023-07-21)"
   xmlns:inkscape="http://www.inkscape.org/namespaces/inkscape"
   xmlns:sodipodi="http://sodipodi.sourceforge.net/DTD/sodipodi-0.dtd"
   xmlns:xlink="http://www.w3.org/1999/xlink"
   xmlns="http://www.w3.org/2000/svg"
   xmlns:svg="http://www.w3.org/2000/svg">
  <defs
     id="defs2">
    <linearGradient
       id="linearGradient9"
       inkscape:collect="always">
      <stop
         style="stop-color:#f94826;stop-opacity:1;"
         offset="0.08163267"
         id="stop11" />
      <stop
         style="stop-color:#e30b4e;stop-opacity:1;"
         offset="0.42687076"
         id="stop14" />
      <stop
         style="stop-color:#460c6d;stop-opacity:1;"
         offset="0.72999999"
         id="stop12" />
    </linearGradient>
    <linearGradient
       id="swatch8"
       inkscape:swatch="solid">
      <stop
         style="stop-color:#000000;stop-opacity:1;"
         offset="0"
         id="stop9" />
    </linearGradient>
    <linearGradient
       inkscape:collect="always"
       xlink:href="#linearGradient9"
       id="linearGradient15"
       x1="105.84289"
       y1="4300.1084"
       x2="8097.1636"
       y2="4300.1084"
       gradientUnits="userSpaceOnUse" />
  </defs>
  <sodipodi:namedview
     id="namedview2"
     pagecolor="#ffffff"
     bordercolor="#999999"
     borderopacity="1"
     inkscape:showpageshadow="2"
     inkscape:pageopacity="0"
     inkscape:pagecheckerboard="0"
     inkscape:deskcolor="#d1d1d1"
     inkscape:document-units="pt"
     inkscape:zoom="0.68948864"
     inkscape:cx="546.05686"
     inkscape:cy="604.07087"
     inkscape:window-width="1920"
     inkscape:window-height="952"
     inkscape:window-x="1512"
     inkscape:window-y="25"
     inkscape:window-maximized="0"
     inkscape:current-layer="g2" />
  <g
     transform="translate(0.000000,880.000000) scale(0.100000,-0.100000)"
     fill="#000000"
     stroke="none"
     id="g2">
    <g
       id="g3"
       style="fill:url(#linearGradient15)"
       transform="translate(-1.5033428,99.891447)">
      <path
         d="m 4510,8377 c -104,-32 -112,-37 -531,-308 -412,-267 -507,-320 -666,-373 -269,-88 -416,-111 -718,-110 -290,0 -298,2 -855,179 -234,74 -451,140 -482,146 -31,6 -101,10 -156,7 -87,-3 -106,-7 -166,-37 -78,-38 -132,-99 -167,-188 -19,-48 -23,-77 -23,-173 v -115 l 121,-465 c 67,-256 127,-494 132,-530 43,-279 5,-656 -99,-965 C 828,5229 765,5121 481,4720 188,4308 167,4277 132,4182 c -19,-52 -25,-87 -26,-157 -1,-83 2,-96 32,-157 39,-80 92,-129 186,-174 101,-48 195,-60 641,-84 215,-11 432,-25 483,-31 387,-44 847,-272 1143,-568 71,-72 167,-193 374,-476 291,-396 335,-448 427,-509 71,-48 133,-66 222,-66 58,0 83,5 134,30 73,34 149,108 201,195 19,31 110,253 203,493 93,240 187,472 209,515 176,348 568,724 919,885 41,18 266,98 500,177 476,160 496,168 579,224 222,151 248,381 68,602 -25,30 -195,178 -378,330 -415,341 -430,354 -508,442 -234,265 -420,655 -487,1022 -13,71 -18,198 -24,615 -6,431 -11,536 -24,588 -66,257 -257,373 -496,299 z M 4133,6810 c 50,-24 111,-80 134,-124 39,-75 45,-113 54,-321 11,-288 48,-442 165,-685 78,-163 170,-295 300,-431 143,-151 179,-217 179,-329 0,-59 -5,-84 -24,-119 -50,-96 -158,-168 -315,-211 -251,-69 -492,-217 -717,-440 -144,-143 -181,-191 -270,-349 -109,-194 -197,-269 -328,-279 -151,-10 -247,54 -399,265 -52,72 -193,214 -282,282 -230,176 -497,298 -749,342 -148,26 -223,50 -288,95 -98,68 -146,179 -123,287 15,74 59,162 112,227 147,180 261,430 318,697 32,147 38,378 15,544 -15,110 -16,141 -6,196 28,155 108,237 258,264 70,13 164,-1 281,-41 149,-52 260,-71 457,-77 330,-11 553,31 817,153 65,30 144,61 175,69 76,19 177,13 236,-15 z"
         id="path1"
         style="fill:url(#linearGradient15);fill-opacity:1" />
      <path
         d="m 5220,3424 c -343,-74 -513,-445 -347,-758 27,-50 203,-228 1141,-1150 610,-600 1144,-1122 1186,-1161 42,-38 102,-82 132,-97 204,-100 434,-66 597,87 83,79 125,148 152,250 25,95 21,190 -12,287 -42,126 87,-6 -1805,1855 -572,562 -616,603 -685,637 -78,38 -187,66 -254,65 -22,0 -69,-7 -105,-15 z"
         id="path2"
         style="fill:url(#linearGradient15);fill-opacity:1" />
    </g>
  </g>
</svg>
